<?xml version="1.0" encoding="UTF-8" standalone="no"?>
<svg
   xmlns:dc="http://purl.org/dc/elements/1.1/"
   xmlns:cc="http://creativecommons.org/ns#"
   xmlns:rdf="http://www.w3.org/1999/02/22-rdf-syntax-ns#"
   xmlns:svg="http://www.w3.org/2000/svg"
   xmlns="http://www.w3.org/2000/svg"
   xmlns:sodipodi="http://sodipodi.sourceforge.net/DTD/sodipodi-0.dtd"
   xmlns:inkscape="http://www.inkscape.org/namespaces/inkscape"
   version="1.1"
   width="792"
   height="612"
   id="svg89"
   viewBox="0 0 792 612"
   sodipodi:docname="fav.svg"
   inkscape:export-filename="/home/mawy7/Desktop/website/IndabaX-Ghana-Website/assets/img/favicon/favicon.png"
   inkscape:export-xdpi="9.6602659"
   inkscape:export-ydpi="9.6602659"
   inkscape:version="0.92.4 (5da689c313, 2019-01-14)">
  <metadata
     id="metadata95">
    <rdf:RDF>
      <cc:Work
         rdf:about="">
        <dc:format>image/svg+xml</dc:format>
        <dc:type
           rdf:resource="http://purl.org/dc/dcmitype/StillImage" />
        <dc:title></dc:title>
      </cc:Work>
    </rdf:RDF>
  </metadata>
  <defs
     id="defs93" />
  <sodipodi:namedview
     pagecolor="#ffffff"
     bordercolor="#666666"
     borderopacity="1"
     objecttolerance="10"
     gridtolerance="10"
     guidetolerance="10"
     inkscape:pageopacity="0"
     inkscape:pageshadow="2"
     inkscape:window-width="1324"
     inkscape:window-height="704"
     id="namedview91"
     showgrid="false"
     inkscape:zoom="1.1822589"
     inkscape:cx="396"
     inkscape:cy="306"
     inkscape:window-x="42"
     inkscape:window-y="27"
     inkscape:window-maximized="1"
     inkscape:current-layer="svg89" />
  <g
     id="Layer1000"
     transform="translate(-2.5375149,16.07093)"
     inkscape:export-filename="/home/mawy7/Desktop/website/IndabaX-Ghana-Website/assets/img/favicon/favicon-32x32.png"
     inkscape:export-xdpi="9.6602659"
     inkscape:export-ydpi="9.6602659">
    <path
       d="m 302.0596,120.8408 111.9263,1.5904 c 18.0371,-17.6544 21.3345,-15.7838 42.4969,-3.5653 -1.8231,12.4336 -6.3752,16.2153 3.0869,24.5074 l 12.1096,10.6124 c 4.4824,3.9297 2.9657,5.5396 2.9683,11.7532 l 0.006,12.7171 c 0.001,3.2316 0.4987,3.4128 -1.256,6.0988 l -3.7399,5.7286 5.1563,-0.1076 c 4.7881,-0.1003 3.9603,-0.9516 6.3719,3.0133 l 2.5355,4.1682 c 3.6657,6.0239 2.6534,4.7476 0.1844,11.5986 -0.6413,1.7788 -1.7448,4.2093 -1.9417,6.0258 -0.3487,3.1651 -0.6746,8.384 -2.145,10.374 -3.1625,4.2809 -6.3393,6.5563 -2.2663,9.4268 4.425,3.1182 10.9873,7.596 11.3933,11.1841 0.3924,3.4663 1.0247,7.3855 -1.2403,9.8897 -1.9411,2.145 -3.607,3.9029 -3.4154,6.924 0.3715,5.8426 1.3655,16.9237 -0.9979,19.2604 -1.3042,1.2886 -1.8876,1.8198 -1.9084,4.3018 -0.0144,1.6927 0.1179,3.45 1.5929,3.9421 2.4658,0.8225 2.0108,0.5325 2.5974,3.9635 0.7672,4.4824 2.9422,12.064 0.3161,13.1799 -17.7795,7.5562 9.3024,34.3345 14.4464,34.5261 4.6153,0.1721 8.3748,0.4517 13.7554,4.7913 3.3971,2.7401 3.3345,2.3634 7.5894,3.1156 l 7.6456,1.3511 -11.9604,5.8623 -6.9801,4.526 c -11.0706,14.6823 -11.8632,16.2172 -26.3304,13.7104 -6.8666,-1.1901 -12.9257,-0.595 -19.4579,0.1141 -6.8171,0.7385 -21.2667,8.1526 -31.8257,13.3376 -10.4385,5.1264 -28.7675,8.5783 -43.8885,11.4312 -12.8266,2.4194 -12.4088,2.2376 -19.6235,9.0827 -3.9557,3.7537 -9.6895,7.2968 -15.3282,10.5584 -9.8505,5.6992 -9.6673,5.7677 -18.0957,5.5415 -10.5968,-0.2816 -60.0919,-21.7092 -73.6433,-26.964 l 24.9356,-3.446 c 6.2904,-0.8695 18.5435,-4.9334 10.3993,-13.0026 l -9.8186,-9.7287 c -4.7535,-4.7098 -4.4543,-5.593 -4.3846,-10.4749 0.0463,-3.2505 -0.0932,-3.7608 -1.1315,-6.7878 -5.7279,-16.6924 -8.0555,-21.3488 -8.5737,-35.1733 -0.3448,-9.2509 -1.0683,-7.4682 6.0969,-12.8839 l 3.6911,-2.7897 c 4.045,-3.0582 6.5068,-12.4447 8.4472,-18.4848 1.284,-4.0027 2.995,-8.034 4.4544,-12.0869 2.1991,-6.1079 4.0997,-7.8508 9.1707,-10.7187 3.5483,-2.0036 4.0535,-6.8647 4.6244,-11.1469 0.425,-3.1951 0.2947,-5.3864 -0.004,-7.948 -0.7267,-6.2246 -6.7877,-13.0801 -11.2232,-18.8348 -2.4136,-3.1312 -2.5576,-3.6905 -3.0289,-6.3961 -1.3361,-7.6742 -1.0343,-6.821 3.8925,-10.9761 3.478,-2.9311 1.9906,-9.5012 1.4848,-14.2078 -0.2894,-2.6873 -2.2056,-5.0957 -3.7862,-7.3841 -0.8623,-1.2508 -1.2026,-2.5538 -1.5624,-3.9571 -0.6752,-2.6326 0.5932,-11.7114 0.8591,-14.9788 l -0.2229,-8.8546 c -0.1095,-4.3631 -3.7139,-11.5641 -6.4111,-17.0489 -2.263,-4.6004 -2.0948,-3.315 0.251,-7.9167 l 4.0418,-7.9297 c 2.7753,-5.4438 1.4828,-4.5026 7.6644,-4.4146 z"
       style="fill:none;stroke:#000d30;stroke-width:1.99979997;stroke-linecap:butt;stroke-linejoin:miter;stroke-dasharray:none"
       id="path2"
       inkscape:connector-curvature="0" />
    <path
       d="m 336.4054,199.8325 a 11.058,11.058 0 0 1 11.058,11.058 11.058,11.058 0 1 1 -11.058,-11.058 z"
       style="fill:#000d30;fill-rule:evenodd;stroke:#000d30;stroke-width:0.5;stroke-linecap:butt;stroke-linejoin:miter;stroke-dasharray:none"
       id="path4"
       inkscape:connector-curvature="0" />
    <path
       d="m 394.8392,258.7887 a 11.058,11.058 0 0 1 11.058,11.0581 11.058,11.058 0 1 1 -11.058,-11.0581 z"
       style="fill:#000d30;fill-rule:evenodd;stroke:#000d30;stroke-width:0.5;stroke-linecap:butt;stroke-linejoin:miter;stroke-dasharray:none"
       id="path6"
       inkscape:connector-curvature="0" />
    <path
       d="m 331.8012,245.9077 a 11.058,11.058 0 0 1 11.058,11.058 11.058,11.058 0 1 1 -11.058,-11.058 z"
       style="fill:#000d30;fill-rule:evenodd;stroke:#000d30;stroke-width:0.5;stroke-linecap:butt;stroke-linejoin:miter;stroke-dasharray:none"
       id="path8"
       inkscape:connector-curvature="0" />
    <path
       d="m 374.4095,362.9206 a 11.058,11.058 0 0 1 11.0581,11.058 11.058,11.058 0 1 1 -11.0581,-11.058 z"
       style="fill:#000d30;fill-rule:evenodd;stroke:#000d30;stroke-width:0.5;stroke-linecap:butt;stroke-linejoin:miter;stroke-dasharray:none"
       id="path10"
       inkscape:connector-curvature="0" />
    <path
       d="m 450.676,285.533 a 11.058,11.058 0 0 1 11.058,11.058 11.058,11.058 0 1 1 -11.058,-11.058 z"
       style="fill:#000d30;fill-rule:evenodd;stroke:#000d30;stroke-width:0.5;stroke-linecap:butt;stroke-linejoin:miter;stroke-dasharray:none"
       id="path12"
       inkscape:connector-curvature="0" />
    <path
       d="m 441.4572,156.5215 a 11.058,11.058 0 0 1 11.058,11.058 11.058,11.058 0 1 1 -11.058,-11.058 z"
       style="fill:#000d30;fill-rule:evenodd;stroke:#000d30;stroke-width:0.5;stroke-linecap:butt;stroke-linejoin:miter;stroke-dasharray:none"
       id="path14"
       inkscape:connector-curvature="0" />
    <path
       d="m 319.8213,135.327 a 11.058,11.058 0 0 1 11.0581,11.058 11.058,11.058 0 1 1 -11.0581,-11.058 z"
       style="fill:#000d30;fill-rule:evenodd;stroke:#000d30;stroke-width:0.5;stroke-linecap:butt;stroke-linejoin:miter;stroke-dasharray:none"
       id="path16"
       inkscape:connector-curvature="0" />
    <path
       d="m 305.9989,319.6283 a 11.058,11.058 0 0 1 11.058,11.0581 11.058,11.058 0 1 1 -11.058,-11.0581 z"
       style="fill:#000d30;fill-rule:evenodd;stroke:#000d30;stroke-width:0.5;stroke-linecap:butt;stroke-linejoin:miter;stroke-dasharray:none"
       id="path18"
       inkscape:connector-curvature="0" />
    <path
       d="m 333.6443,394.2706 a 11.058,11.058 0 0 1 11.058,11.058 11.058,11.058 0 1 1 -11.058,-11.058 z"
       style="fill:#000d30;fill-rule:evenodd;stroke:#000d30;stroke-width:0.5;stroke-linecap:butt;stroke-linejoin:miter;stroke-dasharray:none"
       id="path20"
       inkscape:connector-curvature="0" />
    <path
       d="m 451.5976,337.1371 a 11.058,11.058 0 0 1 11.058,11.058 11.058,11.058 0 1 1 -11.058,-11.058 z"
       style="fill:#000d30;fill-rule:evenodd;stroke:#000d30;stroke-width:0.5;stroke-linecap:butt;stroke-linejoin:miter;stroke-dasharray:none"
       id="path22"
       inkscape:connector-curvature="0" />
    <path
       d="m 411.0507,315.9421 a 11.058,11.058 0 0 1 11.058,11.058 11.058,11.058 0 1 1 -11.058,-11.058 z"
       style="fill:#000d30;fill-rule:evenodd;stroke:#000d30;stroke-width:0.5;stroke-linecap:butt;stroke-linejoin:miter;stroke-dasharray:none"
       id="path24"
       inkscape:connector-curvature="0" />
    <path
       d="m 442.3824,226.5564 a 11.058,11.058 0 0 1 11.058,11.058 11.058,11.058 0 1 1 -11.058,-11.058 z"
       style="fill:#000d30;fill-rule:evenodd;stroke:#000d30;stroke-width:0.5;stroke-linecap:butt;stroke-linejoin:miter;stroke-dasharray:none"
       id="path26"
       inkscape:connector-curvature="0" />
    <path
       d="m 379.7195,146.3848 a 11.058,11.058 0 0 1 11.058,11.058 11.058,11.058 0 1 1 -11.058,-11.058 z"
       style="fill:#000d30;fill-rule:evenodd;stroke:#000d30;stroke-width:0.5;stroke-linecap:butt;stroke-linejoin:miter;stroke-dasharray:none"
       id="path28"
       inkscape:connector-curvature="0" />
    <path
       d="m 394.8392,204.5422 a 11.058,11.058 0 0 1 11.058,11.058 11.058,11.058 0 1 1 -11.058,-11.058 z"
       style="fill:#000d30;fill-rule:evenodd;stroke:#000d30;stroke-width:0.5;stroke-linecap:butt;stroke-linejoin:miter;stroke-dasharray:none"
       id="path30"
       inkscape:connector-curvature="0" />
    <path
       d="m 358.0345,300.6155 a 11.058,11.058 0 0 1 11.058,11.0581 11.058,11.058 0 1 1 -11.058,-11.0581 z"
       style="fill:#000d30;fill-rule:evenodd;stroke:#000d30;stroke-width:0.5;stroke-linecap:butt;stroke-linejoin:miter;stroke-dasharray:none"
       id="path32"
       inkscape:connector-curvature="0" />
    <path
       d="m 328.9448,152.6341 39.7663,3.7557 -32.306,43.4427 -16.584,-42.39 70.8561,47.9095 39.722,-37.7728 -41.7814,-3.5713 2.0594,41.3441 -43.2718,4.4051 40.5865,51.4056 44.2384,-19.1581 -28.3539,-20.0315 -62.1227,30.1677 -5.3486,-30.1928"
       style="fill:none;stroke:#000d30;stroke-width:0.5;stroke-linecap:butt;stroke-linejoin:miter;stroke-dasharray:none"
       id="path34"
       inkscape:connector-curvature="0" />
    <path
       d="m 394.8389,280.9043 44.7791,15.6864 -33.8415,20.6878 -42.1079,-15.1218 24.3233,-40.994 -46.2382,-9.0219"
       style="fill:none;stroke:#000d30;stroke-width:0.5;stroke-linecap:butt;stroke-linejoin:miter;stroke-dasharray:none"
       id="path36"
       inkscape:connector-curvature="0" />
    <path
       d="m 331.8009,268.0232 16.9247,37.6792 -34.6789,17.4001"
       style="fill:none;stroke:#000d30;stroke-width:0.5;stroke-linecap:butt;stroke-linejoin:miter;stroke-dasharray:none"
       id="path38"
       inkscape:connector-curvature="0" />
    <path
       d="m 309.7674,341.0851 53.7853,30.7826"
       style="fill:none;stroke:#000d30;stroke-width:0.5;stroke-linecap:butt;stroke-linejoin:miter;stroke-dasharray:none"
       id="path40"
       inkscape:connector-curvature="0" />
    <path
       d="m 378.1081,363.5543 23.9748,-30.0831 -85.0265,-2.7851"
       style="fill:none;stroke:#000d30;stroke-width:0.5;stroke-linecap:butt;stroke-linejoin:miter;stroke-dasharray:none"
       id="path42"
       inkscape:connector-curvature="0" />
    <path
       d="m 358.0342,322.7311 8.874,43.1224"
       style="fill:none;stroke:#000d30;stroke-width:0.5;stroke-linecap:butt;stroke-linejoin:miter;stroke-dasharray:none"
       id="path44"
       inkscape:connector-curvature="0" />
    <path
       d="m 385.467,373.9783 57.9067,-18.3906 -24.038,-21.2644"
       style="fill:none;stroke:#000d30;stroke-width:0.5;stroke-linecap:butt;stroke-linejoin:miter;stroke-dasharray:none"
       id="path46"
       inkscape:connector-curvature="0" />
    <path
       d="m 451.5973,337.1371 3.3587,-30.3475"
       style="fill:none;stroke:#000d30;stroke-width:0.5;stroke-linecap:butt;stroke-linejoin:miter;stroke-dasharray:none"
       id="path48"
       inkscape:connector-curvature="0" />
    <path
       d="m 450.6757,285.533 -6.3971,-37.0231 -38.3819,21.3366"
       style="fill:none;stroke:#000d30;stroke-width:0.5;stroke-linecap:butt;stroke-linejoin:miter;stroke-dasharray:none"
       id="path50"
       inkscape:connector-curvature="0" />
    <path
       d="m 438.2644,227.3484 -1.9289,-49.9663"
       style="fill:none;stroke:#000d30;stroke-width:0.5;stroke-linecap:butt;stroke-linejoin:miter;stroke-dasharray:none"
       id="path52"
       inkscape:connector-curvature="0" />
    <path
       d="m 325.2335,265.863 -19.2349,53.7653"
       style="fill:none;stroke:#000d30;stroke-width:0.5;stroke-linecap:butt;stroke-linejoin:miter;stroke-dasharray:none"
       id="path54"
       inkscape:connector-curvature="0" />
    <path
       d="m 305.9986,341.7439 18.7929,56.9574"
       style="fill:none;stroke:#000d30;stroke-width:0.5;stroke-linecap:butt;stroke-linejoin:miter;stroke-dasharray:none"
       id="path56"
       inkscape:connector-curvature="0" />
    <path
       d="m 342.4878,398.6893 23.1734,-17.946"
       style="fill:none;stroke:#000d30;stroke-width:0.5;stroke-linecap:butt;stroke-linejoin:miter;stroke-dasharray:none"
       id="path58"
       inkscape:connector-curvature="0" />
    <path
       d="m 325.3473,210.8902 -30.0381,1.2163"
       style="fill:none;stroke:#000d30;stroke-width:0.5;stroke-linecap:butt;stroke-linejoin:miter;stroke-dasharray:none"
       id="path60"
       inkscape:connector-curvature="0" />
    <path
       d="m 320.7432,256.9655 -21.0723,10.1826"
       style="fill:none;stroke:#000d30;stroke-width:0.5;stroke-linecap:butt;stroke-linejoin:miter;stroke-dasharray:none"
       id="path62"
       inkscape:connector-curvature="0" />
    <path
       d="m 329.3016,140.6897 0.2769,-19.4573"
       style="fill:none;stroke:#000d30;stroke-width:0.5;stroke-linecap:butt;stroke-linejoin:miter;stroke-dasharray:none"
       id="path64"
       inkscape:connector-curvature="0" />
    <path
       d="m 445.1965,157.1698 8.6525,-25.2099"
       style="fill:none;stroke:#000d30;stroke-width:0.5;stroke-linecap:butt;stroke-linejoin:miter;stroke-dasharray:none"
       id="path66"
       inkscape:connector-curvature="0" />
    <path
       d="m 453.1369,235.0312 22.5073,-2.773"
       style="fill:none;stroke:#000d30;stroke-width:0.5;stroke-linecap:butt;stroke-linejoin:miter;stroke-dasharray:none"
       id="path68"
       inkscape:connector-curvature="0" />
    <path
       d="m 461.7335,296.5907 19.8455,-7.9796"
       style="fill:none;stroke:#000d30;stroke-width:0.5;stroke-linecap:butt;stroke-linejoin:miter;stroke-dasharray:none"
       id="path70"
       inkscape:connector-curvature="0" />
    <path
       d="m 461.9184,352.171 43.7556,15.6191"
       style="fill:none;stroke:#000d30;stroke-width:0.5;stroke-linecap:butt;stroke-linejoin:miter;stroke-dasharray:none"
       id="path72"
       inkscape:connector-curvature="0" />
    <path
       d="m 451.5973,359.2526 -3.248,21.9635"
       style="fill:none;stroke:#000d30;stroke-width:0.5;stroke-linecap:butt;stroke-linejoin:miter;stroke-dasharray:none"
       id="path74"
       inkscape:connector-curvature="0" />
    <path
       d="m 380.8885,382.9401 23.1807,14.2858"
       style="fill:none;stroke:#000d30;stroke-width:0.5;stroke-linecap:butt;stroke-linejoin:miter;stroke-dasharray:none"
       id="path76"
       inkscape:connector-curvature="0" />
    <path
       d="m 324.7915,398.7013 -43.5629,7.454"
       style="fill:none;stroke:#000d30;stroke-width:0.5;stroke-linecap:butt;stroke-linejoin:miter;stroke-dasharray:none"
       id="path78"
       inkscape:connector-curvature="0" />
    <path
       d="m 296.8697,336.9276 -18.7307,6.3658"
       style="fill:none;stroke:#000d30;stroke-width:0.5;stroke-linecap:butt;stroke-linejoin:miter;stroke-dasharray:none"
       id="path80"
       inkscape:connector-curvature="0" />
    <path
       d="m 384.2221,147.3403 29.7639,-24.909"
       style="fill:none;stroke:#000d30;stroke-width:0.5;stroke-linecap:butt;stroke-linejoin:miter;stroke-dasharray:none"
       id="path82"
       inkscape:connector-curvature="0" />
    <path
       d="m 309.0642,148.9572 -16.1937,-2.1164"
       style="fill:none;stroke:#000d30;stroke-width:0.5;stroke-linecap:butt;stroke-linejoin:miter;stroke-dasharray:none"
       id="path84"
       inkscape:connector-curvature="0" />
    <path
       d="m 450.6533,173.7214 24.0004,4.7348"
       style="fill:none;stroke:#000d30;stroke-width:0.5;stroke-linecap:butt;stroke-linejoin:miter;stroke-dasharray:none"
       id="path86"
       inkscape:connector-curvature="0" />
  </g>
</svg>
